# xmcd
#
# Track frame offsets:
#	150
#	12911
#	29046
#	46405
#	55139
#	63456
#	83287
#	93089
#	103047
#	117573
#	135076
#	144912
#	154531
#	165803
#
# Disc length: 2320 seconds
#
# Revision: 0
# Processed by: cddbd v1.4PL0 Copyright (c) Steve Scherf et al.
# Submitted via: dBpowerAMP V4.0
#
DISCID=a0090e0e
DTITLE=Various Artist - Country Christmas
DYEAR=2003
DGENRE=Country
TTITLE0=Gene Autry - Rudolph the rednosed raindeer
TTITLE1=Kate Smith - White Christmas
TTITLE2=Glenn Campbell - The little drummer boy
TTITLE3=Gene Autry - Jingle bells
TTITLE4=Kitty Wells - Santa's on his way
TTITLE5=Glenn Campbell - The christmas song
TTITLE6=Kitty Wells - Dasher with the light upon his tail
TTITLE7=Gene Autry - Santa Claus is coming to town
TTITLE8=Kenny Rogers - All god"s lonely children
TTITLE9=Hark the angels sing medley
TTITLE10=Gene Autry - Silver Bells
TTITLE11=Kate Smith - Joy to the world
TTITLE12=Kitty Wells - Ole kris kringle
TTITLE13=Gene Autry - Frosty the snowman
EXTD=
EXTT0=
EXTT1=
EXTT2=
EXTT3=
EXTT4=
EXTT5=
EXTT6=
EXTT7=
EXTT8=
EXTT9=
EXTT10=
EXTT11=
EXTT12=
EXTT13=
PLAYORDER=
